# AST/ASF file generated using VICON BodyLanguage
# -----------------------------------------------
:version 1.10
:name VICON
:units
  mass 1.0
  length 0.45
  angle deg
:documentation
   .ast/.asf automatically generated from VICON data using
   VICON BodyBuilder and BodyLanguage model FoxedUp or BRILLIANT.MOD
:root
   order TX TY TZ RX RY RZ
   axis XYZ
   position 0 0 0  
   orientation 0 0 0 
:bonedata
  begin
     id 1 
     name lhipjoint
     direction 0.734343 -0.627749 0.258209 
     length 2.5437 
     axis 0 0 0  XYZ
  end
  begin
     id 2 
     name lfemur
     direction 0.34202 -0.939693 0  
     length 6.7391  
     axis 0 0 20  XYZ
    dof rx ry rz
    limits (-160.0 20.0)
           (-70.0 70.0)
           (-60.0 70.0)
  end
  begin
     id 3 
     name ltibia
     direction 0.34202 -0.939693 0   
     length 7.21536   
     axis 0 0 20   XYZ
    dof rx
    limits (-10.0 170.0)
  end
  begin
     id 4 
     name lfoot
     direction 0.0489572 -0.134509 0.989702   
     length 1.61313   
     axis -90 7.62852e-016 20   XYZ
    dof rx rz
    limits (-45.0 90.0)
           (-70.0 20.0)
  end
  begin
     id 5 
     name ltoes
     direction 1.53451e-011 -4.21692e-011 1   
     length 0.823104   
     axis -90 7.62852e-016 20   XYZ
    dof rx
    limits (-90.0 20.0)
  end
  begin
     id 6 
     name rhipjoint
     direction -0.746398 -0.615468 0.253157   
     length 2.59446  
     axis 0 0 0  XYZ 
  end
  begin
     id 7 
     name rfemur
     direction -0.34202 -0.939693 0   
     length 6.7075   
     axis 0 0 -20   XYZ
    dof rx ry rz
    limits (-160.0 20.0)
           (-70.0 70.0)
           (-70.0 60.0)
  end
  begin
     id 8 
     name rtibia
     direction -0.34202 -0.939693 0   
     length 7.27262   
     axis 0 0 -20   XYZ
    dof rx
    limits (-10.0 170.0)
 end
 begin
     id 9 
     name rfoot
     direction -0.0455203 -0.125066 0.991104   
     length 1.91095  
     axis -90 -7.62852e-016 -20   XYZ
    dof rx rz
    limits (-45.0 90.0)
           (-20.0 70.0)
  end
  begin
     id 10 
     name rtoes
     direction -1.53601e-011 -4.21913e-011 1   
     length 0.969037   
     axis -90 -7.62852e-016 -20   XYZ
    dof rx
    limits (-90.0 20.0)
  end
  begin
     id 11 
     name lowerback
     direction 0.0181546 0.999122 -0.0377542   
     length 1.99916   
     axis 0 0 0   XYZ
    dof rx ry rz
    limits (-20.0 45.0)
           (-30.0 30.0)
           (-30.0 30.0)
  end
  begin
     id 12 
     name upperback
     direction 0.0203486 0.99589 0.0882534   
     length 1.951   
     axis 0 0 0   XYZ
    dof rx ry rz
    limits (-20.0 45.0)
           (-30.0 30.0)
           (-30.0 30.0)
  end
  begin
     id 13 
     name thorax
     direction 0.0131685 0.994241 0.106355   
     length 1.97461   
     axis 0 0 0   XYZ
    dof rx ry rz
    limits (-20.0 45.0)
           (-30.0 30.0)
           (-30.0 30.0)
  end
  begin
     id 14 
     name lowerneck
     direction -0.0281395 0.999325 0.023617   
     length 1.7959   
     axis 0 0 0   XYZ
    dof rx ry rz
    limits (-20.0 45.0)
           (-30.0 30.0)
           (-30.0 30.0)
  end
  begin
     id 15 
     name upperneck
     direction 0.0288721 0.991984 -0.123019   
     length 1.79917   
     axis 0 0 0   XYZ
    dof rx ry rz
    limits (-20.0 45.0)
           (-30.0 30.0)
           (-30.0 30.0)
  end
  begin
     id 16
     name head
     direction 0.0133797 0.998944 -0.0439492  
     length 1.80902  
     axis 0 0 0   XYZ
    dof rx ry rz
    limits (-20.0 45.0)
           (-30.0 30.0)
           (-30.0 30.0)
  end
  begin
     id 17 
     name lclavicle
     direction 0.919195 0.377107 0.113449  
     length 3.17815  
     axis 0 0 0   XYZ
    dof ry rz
    limits (-20.0 10.0)
           (0.0 20.0)
  end
  begin
     id 18 
     name lhumerus
     direction 1 -4.48959e-011 2.13129e-027   
     length 4.84137   
     axis 180 -30 -90   XYZ
    dof rx ry rz
    limits (-60.0 90.0)
           (-90.0 90.0)
           (-90.0 90.0)
  end
  begin
     id 19
     name lradius
     direction 1 -4.48957e-011 -6.30627e-028   
     length 3.2452   
     axis 180 -30 -90   XYZ
    dof rx
    limits (-10.0 170.0)
  end
  begin
     id 20
     name lwrist
     direction 1 -4.4901e-011 9.13299e-027   
     length 1.6226   
     axis -6.84618e-015 90 90   XYZ
    dof ry
    limits (-180.0 0.0)
 end
  begin
     id 21 
     name lhand
     direction 1 -4.48816e-011 1.82293e-026   
     length 0.521221   
     axis -1.16502e-014 90 90   XYZ
    dof rx rz
    limits (-90.0 90.0)
           (-45.0 45.0)
  end
  begin
     id 22 
     name lfingers
     direction 1 -4.49108e-011 3.65687e-026   
     length 0.420221   
     axis -2.33008e-014 90 90   XYZ
    dof rx
    limits (0.0 90.0)
  end
  begin
     id 23
     name lthumb
     direction 0.707107 -6.34943e-011 0.707107   
     length 0.603356   
     axis -90 45 5.69224e-014   XYZ
    dof rx rz
    limits (-45.0 45.0)
           (-45.0 45.0)
  end
  begin
     id 24 
     name rclavicle
     direction -0.90847 0.38596 0.160368   
     length 3.12973  
     axis 0 0 0   XYZ 
    dof ry rz
    limits (-10.0 20.0)
           (-20.0 0.0)
  end
  begin
     id 25 
     name rhumerus
     direction -1 -4.48974e-011 4.47268e-028  
     length 4.72284   
     axis 180 30 90   XYZ
    dof rx ry rz
    limits (-90.0 60.0)
           (-90.0 90.0)
           (-90.0 90.0)
  end
  begin
     id 26 
     name rradius
     direction -1 -4.48969e-011 3.43203e-027   
     length 3.23459   
     axis 180 30 90   XYZ
    dof rx
    limits (-10.0 170.0)
  end
  begin
     id 27 
     name rwrist
     direction -1 -4.48969e-011 9.12911e-027   
     length 1.6173   
     axis -6.84618e-015 -90 -90   XYZ
    dof ry
    limits (-180.0 0.0)
  end
  begin
     id 28
     name rhand
     direction -1 -4.49194e-011 1.83006e-026   
     length 0.307416   
     axis -1.16502e-014 -90 -90   XYZ
    dof rx rz
    limits (-90.0 90.0)
           (-45.0 45.0)
  end
  begin
     id 29
     name rfingers
     direction -1 -4.48423e-011 3.63103e-026   
     length 0.247847   
     axis -2.33008e-014 -90 -90   XYZ
    dof rx
    limits (0.0 90.0)
  end
  begin
     id 30
     name rthumb
     direction -0.707107 -6.34802e-011 0.707107   
     length 0.35586   
     axis -90 -45 -5.69224e-014   XYZ
    dof rx rz
    limits (-45.0 45.0)
           (-45.0 45.0)
  end
:hierarchy
  begin
    root lhipjoint rhipjoint lowerback
    lhipjoint lfemur
    lfemur ltibia
    ltibia lfoot
    lfoot ltoes
    rhipjoint rfemur
    rfemur rtibia
    rtibia rfoot
    rfoot rtoes
    lowerback upperback
    upperback thorax
    thorax lowerneck lclavicle rclavicle
    lowerneck upperneck
    upperneck head
    lclavicle lhumerus
    lhumerus lradius
    lradius lwrist
    lwrist lhand lthumb
    lhand lfingers
    rclavicle rhumerus
    rhumerus rradius
    rradius rwrist
    rwrist rhand rthumb
    rhand rfingers
  end

#!OML:ASF \\Waltz\H\Terrain\Patient Classification 1\Animal1\Tuesday\Animal1.ASF
:FULLY-SPECIFIED
:DEGREES
568
root 11.72 12.2672 -12.5161 35.6153 -19.5993 -3.00058
lowerback 44.8834 -0.213938 6.26072
upperback 12.7693 1.64155 -2.05123
thorax -6.26137 0.799248 -6.0423
lowerneck -15.9671 -0.370907 1.35032
upperneck -8.30597 -0.628493 7.20289
head 0.0518414 -0.311015 2.03784
rclavicle 9.54166e-015 6.49032e-014
rhumerus -57.5371 20.9369 -66.8145
rradius 25.4916
rwrist -1.97138
rhand -58.6459 35.9102
rfingers 7.12502
rthumb -30.8618 8.48247
lclavicle 9.54166e-015 6.49032e-014
lhumerus -59.8178 -21.3688 49.1849
lradius 28.2411
lwrist -41.8995
lhand -18.1461 -301.567
lfingers 7.12502
lthumb 8.12936 448.256
rfemur -101.432 7.09723 20.8055
rtibia 87.3207
rfoot -19.3346 -3.33248
rtoes -8.12515
lfemur -74.1844 -5.90942 3.75652
ltibia 104.731
lfoot 4.60978 -26.7955
ltoes 40.9837
569
root 11.7207 12.2568 -12.5069 35.7076 -19.6401 -3.11435
lowerback 44.9172 -0.192849 6.31804
upperback 12.7837 1.67532 -2.15826
thorax -6.24676 0.820396 -6.20122
lowerneck -16.116 -0.193669 1.96631
upperneck -8.14314 -0.514104 6.85861
head 0.116177 -0.265569 1.82241
rclavicle -9.54166e-015 3.57812e-014
rhumerus -54.0756 13.8569 -61.1868
rradius 23.9347
rwrist -7.26412
rhand -55.593 56.3706
rfingers 7.12502
rthumb -27.9472 28.4307
lclavicle -9.54166e-015 3.57812e-014
lhumerus -56.4607 -15.0516 42.3792
lradius 25.7336
lwrist -48.6311
lhand -16.8056 -292.373
lfingers 7.12502
lthumb 9.42294 622.603
rfemur -101.542 7.17098 20.8866
rtibia 87.3987
rfoot -19.3161 -3.73229
rtoes -9.38817
lfemur -74.2318 -5.74368 3.75098
ltibia 104.889
lfoot 4.17166 -26.6978
ltoes 41.2641
570
root 11.7262 12.2462 -12.5023 35.7346 -19.2743 -3.05157
lowerback 44.9606 -0.458112 6.67133
upperback 12.727 1.52643 -2.13441
thorax -6.32508 0.755397 -6.29677
lowerneck -16.4621 -0.0724079 2.18905
upperneck -7.50311 -0.445912 6.68254
head 0.376478 -0.209334 1.73238
rclavicle -1.03368e-014 9.69075e-015
rhumerus -52.5882 7.80695 -57.1262
rradius 24.0484
rwrist -13.004
rhand -57.5093 77.9422
rfingers 7.12502
rthumb -29.7776 50.3149
lclavicle -1.03368e-014 9.69075e-015
lhumerus -54.4606 -8.26754 36.2494
lradius 23.8389
lwrist -54.1112
lhand -19.7864 -283.948
lfingers 7.12502
lthumb 6.54598 614.069
rfemur -101.611 6.81009 21.0856
rtibia 87.4495
rfoot -19.2209 -3.95329
rtoes -10.5445
lfemur -74.6485 -5.89725 3.83564
ltibia 105.035
lfoot 3.93673 -26.4971
ltoes 41.2928
571
root 11.7289 12.2543 -12.4998 35.6836 -19.0403 -3.114
lowerback 45.0621 -0.635764 6.93637
upperback 12.6999 1.45303 -2.00437
thorax -6.37932 0.718214 -6.26134
lowerneck -16.6689 0.00801998 2.15659
upperneck -6.96514 -0.37515 6.52145
head 0.584744 -0.151804 1.69221
rclavicle -7.95139e-015 -1.80397e-014
rhumerus -52.355 3.70599 -54.9976
rradius 25.2225
rwrist -19.1888
rhand -55.4489 86.7426
rfingers 7.12502
rthumb -27.8095 58.7803
lclavicle -7.95139e-015 -1.80397e-014
lhumerus -53.9962 -2.80194 32.2535
lradius 23.0323
lwrist -55.0051
lhand -19.5272 -275.625
lfingers 7.12502
lthumb 6.79621 605.755
rfemur -101.413 6.61219 21.3606
rtibia 87.3551
rfoot -19.2505 -3.63409
rtoes -9.39903
lfemur -74.5926 -5.9935 3.90971
ltibia 105.033
lfoot 3.95928 -26.1887
ltoes 42.0878
572
root 11.723 12.3077 -12.5018 35.6157 -19.0295 -3.29153
lowerback 45.2246 -0.661663 7.04513
upperback 12.6903 1.48466 -1.91401
thorax -6.42241 0.726823 -6.23173
lowerneck -16.6435 0.0455764 1.93835
upperneck -6.84403 -0.289283 6.71864
head 0.62232 -0.0953977 1.80035
rclavicle 2.06736e-014 1.54058e-014
rhumerus -52.8462 1.19317 -54.3488
rradius 27.1391
rwrist -25.8133
rhand -53.4029 -90.974
rfingers 7.12502
rthumb -25.8516 62.7111
lclavicle 2.06736e-014 1.54058e-014
lhumerus -54.3982 -0.353007 31.4915
lradius 23.1985
lwrist -49.3658
lhand -20.0122 -271.58
lfingers 7.12502
lthumb 6.32808 601.695
rfemur -100.835 6.70956 21.6039
rtibia 86.9911
rfoot -19.4124 -3.34125
rtoes -7.8209
lfemur -74.0082 -5.94528 3.90019
ltibia 104.72
lfoot 3.50863 -26.0362
ltoes 41.3129
573
root 11.7063 12.3092 -12.5076 35.948 -19.5972 -3.72407
lowerback 45.1198 -0.126185 6.4918
upperback 12.6408 1.87029 -1.82183
thorax -6.42899 0.88214 -6.00796
lowerneck -16.5719 0.10005 1.85973
upperneck -6.87652 -0.194538 6.86865
head 0.599269 -0.0450093 1.86822
rclavicle 7.95139e-015 -1.54555e-014
rhumerus -53.8643 -0.50752 -54.7264
rradius 29.3284
rwrist -30.3569
rhand -52.5055 -91.6226
rfingers 7.12502
rthumb -24.9919 63.2372
lclavicle 7.95139e-015 -1.54555e-014
lhumerus -55.2373 -0.533634 33.5375
lradius 24.0548
lwrist -38.6389
lhand -24.4146 -450.518
lfingers 7.12502
lthumb 2.07697 599.512
rfemur -100.966 7.43989 21.7314
rtibia 86.7771
rfoot -19.2088 -3.06538
rtoes -6.74729
lfemur -73.6999 -4.99339 3.79472
ltibia 104.779
lfoot 1.9472 -26.262
ltoes 38.3334
574
root 11.7212 12.3124 -12.5006 35.6696 -19.1509 -3.5857
lowerback 45.5301 -0.576042 7.04999
upperback 12.5588 1.61139 -1.85272
thorax -6.63153 0.766923 -6.22342
lowerneck -16.3296 0.194166 2.02506
upperneck -7.04487 -0.0745663 6.76313
head 0.498326 0.000270353 1.80811
rclavicle 4.77083e-014 -1.78906e-015
rhumerus -55.2739 -1.39457 -56.3154
rradius 31.3474
rwrist -31.873
rhand -52.1859 79.7239
rfingers 7.12502
rthumb -24.6857 51.2963
lclavicle 4.77083e-014 -1.78906e-015
lhumerus -56.4772 -1.85744 36.7597
lradius 25.6015
lwrist -27.3149
lhand -27.9091 -273.237
lfingers 7.12502
lthumb -1.29814 603.261
rfemur -100.693 6.86597 21.9737
rtibia 86.7206
rfoot -19.2208 -2.55897
rtoes -5.16021
lfemur -73.7331 -5.59271 3.81567
ltibia 104.747
lfoot 1.42297 -25.9282
ltoes 36.9315
575
root 11.7088 12.3142 -12.5062 35.9358 -19.6405 -3.93259
lowerback 45.5803 -0.126081 6.56261
upperback 12.4546 1.93645 -1.76134
thorax -6.74495 0.891338 -6.01308
lowerneck -16.1739 0.276974 2.10735
upperneck -7.25382 0.0422609 6.61493
head 0.39935 0.0452587 1.74899
rclavicle -1.03368e-014 -2.40529e-014
rhumerus -56.6034 -1.75428 -58.3125
rradius 32.8914
rwrist -32.144
rhand -53.2512 72.9812
rfingers 7.12502
rthumb -25.7064 44.6972
lclavicle -1.03368e-014 -2.40529e-014
lhumerus -58.2483 -3.57201 40.6727
lradius 27.7884
lwrist -18.2105
lhand -30.8679 -277.873
lfingers 7.12502
lthumb -4.15553 607.934
rfemur -100.78 7.43915 22.0514
rtibia 86.5405
rfoot -19.2285 -2.24456
rtoes -4.57059
lfemur -73.4446 -4.95388 3.79201
ltibia 104.754
lfoot 1.33607 -25.9479
ltoes 36.6371
576
root 11.7252 12.3159 -12.4976 35.7489 -19.1344 -3.79711
lowerback 45.8793 -0.570298 7.08043
upperback 12.4062 1.67966 -1.65706
thorax -6.88178 0.773539 -6.05883
lowerneck -16.3104 0.332252 2.03165
upperneck -7.24124 0.120726 6.46894
head 0.423333 0.087405 1.71971
rclavicle -2.14687e-014 4.77083e-015
rhumerus -57.6869 -1.69973 -60.5148
rradius 33.8933
rwrist -31.8904
rhand -54.4408 68.8847
rfingers 7.12502
rthumb -26.8452 40.7705
lclavicle -2.14687e-014 4.77083e-015
lhumerus -60.5729 -5.52121 45.2211
lradius 30.4487
lwrist -11.8072
lhand -32.3158 -282.968
lfingers 7.12502
lthumb -5.55369 613.06
rfemur -100.548 6.81853 22.3094
rtibia 86.5493
rfoot -19.5056 -2.20807
rtoes -4.73322
lfemur -73.6288 -5.79015 3.99599
ltibia 104.755
lfoot 1.81376 -25.5427
ltoes 37.3672
577
root 11.7237 12.3129 -12.4985 36.0535 -19.311 -4.17666
lowerback 45.7499 -0.363071 6.97679
upperback 12.408 1.87664 -1.51033
thorax -6.82887 0.853574 -5.92731
lowerneck -16.4611 0.384926 1.98163
upperneck -7.21935 0.190416 6.33534
head 0.452884 0.125003 1.68984
rclavicle -6.91771e-014 1.57537e-014
rhumerus -58.7849 -0.934387 -63.5618
rradius 34.7688
rwrist -31.5259
rhand -48.6046 50.6436
rfingers 7.12502
rthumb -21.2493 21.7884
lclavicle -6.91771e-014 1.57537e-014
lhumerus -62.8884 -6.66154 49.0745
lradius 32.9804
lwrist -9.51484
lhand -30.977 -289.09
lfingers 7.12502
lthumb -4.2609 619.153
rfemur -100.634 7.12387 22.6164
rtibia 86.43
rfoot -19.5107 -2.04888
rtoes -4.39201
lfemur -73.7158 -5.41124 4.28518
ltibia 104.859
lfoot 1.9162 -25.5016
ltoes 37.4924
